<?xml version="1.0" encoding="utf-8"?>
<!-- Generator: Adobe Illustrator 19.2.1, SVG Export Plug-In . SVG Version: 6.00 Build 0)  -->
<svg version="1.1" id="Layer_1" xmlns="http://www.w3.org/2000/svg" xmlns:xlink="http://www.w3.org/1999/xlink" x="0px" y="0px"
	 viewBox="0 0 81.1 87.3" style="enable-background:new 0 0 81.1 87.3;" xml:space="preserve">
<style type="text/css">
	.st0{clip-path:url(#SVGID_2_);fill:#121134;}
	.st1{clip-path:url(#SVGID_2_);fill:#131134;}
	.st2{clip-path:url(#SVGID_2_);fill:#141235;}
	.st3{clip-path:url(#SVGID_2_);fill:#151235;}
	.st4{clip-path:url(#SVGID_2_);fill:#161235;}
	.st5{clip-path:url(#SVGID_2_);fill:#171336;}
	.st6{clip-path:url(#SVGID_2_);fill:#181336;}
	.st7{clip-path:url(#SVGID_2_);fill:#191336;}
	.st8{clip-path:url(#SVGID_2_);fill:#1A1437;}
	.st9{clip-path:url(#SVGID_2_);fill:#1B1437;}
	.st10{clip-path:url(#SVGID_2_);fill:#1C1537;}
	.st11{clip-path:url(#SVGID_2_);fill:#1D1538;}
	.st12{clip-path:url(#SVGID_2_);fill:#1E1638;}
	.st13{clip-path:url(#SVGID_2_);fill:#1F1639;}
	.st14{clip-path:url(#SVGID_2_);fill:#201639;}
	.st15{clip-path:url(#SVGID_2_);fill:#211739;}
	.st16{clip-path:url(#SVGID_2_);fill:#221739;}
	.st17{clip-path:url(#SVGID_2_);fill:#23173A;}
	.st18{clip-path:url(#SVGID_2_);fill:#24183A;}
	.st19{clip-path:url(#SVGID_2_);fill:#25183B;}
	.st20{clip-path:url(#SVGID_2_);fill:#26193B;}
	.st21{clip-path:url(#SVGID_2_);fill:#27193B;}
	.st22{clip-path:url(#SVGID_2_);fill:#28193C;}
	.st23{clip-path:url(#SVGID_2_);fill:#291A3C;}
	.st24{clip-path:url(#SVGID_2_);fill:#2A1A3D;}
	.st25{clip-path:url(#SVGID_2_);fill:#2B1B3D;}
	.st26{clip-path:url(#SVGID_2_);fill:#2C1B3D;}
	.st27{clip-path:url(#SVGID_2_);fill:#2D1B3D;}
	.st28{clip-path:url(#SVGID_2_);fill:#2E1C3E;}
	.st29{clip-path:url(#SVGID_2_);fill:#2F1C3E;}
	.st30{clip-path:url(#SVGID_2_);fill:#301D3F;}
	.st31{clip-path:url(#SVGID_2_);fill:#311D3F;}
	.st32{clip-path:url(#SVGID_2_);fill:#321D3F;}
	.st33{clip-path:url(#SVGID_2_);fill:#321E40;}
	.st34{clip-path:url(#SVGID_2_);fill:#331E40;}
	.st35{clip-path:url(#SVGID_2_);fill:#341E40;}
	.st36{clip-path:url(#SVGID_2_);fill:#351E41;}
	.st37{clip-path:url(#SVGID_2_);fill:#361F41;}
	.st38{clip-path:url(#SVGID_2_);fill:#371F41;}
	.st39{clip-path:url(#SVGID_2_);fill:#371F42;}
	.st40{clip-path:url(#SVGID_2_);fill:#382042;}
	.st41{clip-path:url(#SVGID_2_);fill:#392042;}
	.st42{clip-path:url(#SVGID_2_);fill:#3A2042;}
	.st43{clip-path:url(#SVGID_2_);fill:#3B2143;}
	.st44{clip-path:url(#SVGID_2_);fill:#3C2143;}
	.st45{clip-path:url(#SVGID_2_);fill:#3D2244;}
	.st46{clip-path:url(#SVGID_2_);fill:#3E2244;}
	.st47{clip-path:url(#SVGID_2_);fill:#3F2244;}
	.st48{clip-path:url(#SVGID_2_);fill:#402345;}
	.st49{clip-path:url(#SVGID_2_);fill:#412345;}
	.st50{clip-path:url(#SVGID_2_);fill:#422346;}
	.st51{clip-path:url(#SVGID_2_);fill:#432446;}
	.st52{clip-path:url(#SVGID_2_);fill:#442446;}
	.st53{clip-path:url(#SVGID_2_);fill:#452446;}
	.st54{clip-path:url(#SVGID_2_);fill:#452547;}
	.st55{clip-path:url(#SVGID_2_);fill:#462547;}
	.st56{clip-path:url(#SVGID_2_);fill:#472547;}
	.st57{clip-path:url(#SVGID_2_);fill:#482648;}
	.st58{clip-path:url(#SVGID_2_);fill:#492648;}
	.st59{clip-path:url(#SVGID_2_);fill:#4A2649;}
	.st60{clip-path:url(#SVGID_2_);fill:#4B2749;}
	.st61{clip-path:url(#SVGID_2_);fill:#4C2749;}
	.st62{clip-path:url(#SVGID_2_);fill:#4D2749;}
	.st63{clip-path:url(#SVGID_2_);fill:#4E284A;}
	.st64{clip-path:url(#SVGID_2_);fill:#4F284A;}
	.st65{clip-path:url(#SVGID_2_);fill:#50294B;}
	.st66{clip-path:url(#SVGID_2_);fill:#51294B;}
	.st67{clip-path:url(#SVGID_2_);fill:#52294B;}
	.st68{clip-path:url(#SVGID_2_);fill:#53294C;}
	.st69{clip-path:url(#SVGID_2_);fill:#542A4C;}
	.st70{clip-path:url(#SVGID_2_);fill:#552A4C;}
	.st71{clip-path:url(#SVGID_2_);fill:#562B4D;}
	.st72{clip-path:url(#SVGID_2_);fill:#572B4D;}
	.st73{clip-path:url(#SVGID_2_);fill:#582B4D;}
	.st74{clip-path:url(#SVGID_2_);fill:#592B4E;}
	.st75{clip-path:url(#SVGID_2_);fill:#592C4E;}
	.st76{clip-path:url(#SVGID_2_);fill:#5A2C4E;}
	.st77{clip-path:url(#SVGID_2_);fill:#5B2C4F;}
	.st78{clip-path:url(#SVGID_2_);fill:#5C2D4F;}
	.st79{clip-path:url(#SVGID_2_);fill:#5D2D4F;}
	.st80{clip-path:url(#SVGID_2_);fill:#5E2D4F;}
	.st81{clip-path:url(#SVGID_2_);fill:#5F2D50;}
	.st82{clip-path:url(#SVGID_2_);fill:#602E50;}
	.st83{clip-path:url(#SVGID_2_);fill:#612E51;}
	.st84{fill:#FFFFFF;}
</style>
<g id="layer1" transform="matrix(15.623041,0,0,15.623041,-3987.6024,-6644.8835)">
	<g id="rect3050">
		<g>
			<defs>
				<path id="SVGID_1_" d="M256.4,425.9h3c0.4,0,0.7,0.3,0.7,0.7v3c0,0.4-0.3,0.7-0.7,0.7h-3c-0.4,0-0.7-0.3-0.7-0.7v-3
					C255.6,426.2,256,425.9,256.4,425.9z"/>
			</defs>
			<clipPath id="SVGID_2_">
				<use xlink:href="#SVGID_1_"  style="overflow:visible;"/>
			</clipPath>
			<polygon class="st0" points="255.6,429.9 256.1,430.4 255.6,430.4 			"/>
			<polygon class="st0" points="255.6,429.8 256.2,430.4 256.1,430.4 255.6,429.9 			"/>
			<polygon class="st1" points="255.6,429.7 256.3,430.4 256.2,430.4 255.6,429.8 			"/>
			<polygon class="st2" points="255.6,429.7 256.4,430.4 256.3,430.4 255.6,429.7 			"/>
			<polygon class="st3" points="255.6,429.6 256.5,430.4 256.4,430.4 255.6,429.7 			"/>
			<polygon class="st4" points="255.6,429.5 256.6,430.4 256.5,430.4 255.6,429.6 			"/>
			<polygon class="st5" points="255.6,429.4 256.7,430.4 256.6,430.4 255.6,429.5 			"/>
			<polygon class="st6" points="255.6,429.3 256.7,430.4 256.7,430.4 255.6,429.4 			"/>
			<polygon class="st7" points="255.6,429.2 256.8,430.4 256.7,430.4 255.6,429.3 			"/>
			<polygon class="st8" points="255.6,429.1 256.9,430.4 256.8,430.4 255.6,429.2 			"/>
			<polygon class="st9" points="255.6,429.1 257,430.4 256.9,430.4 255.6,429.1 			"/>
			<polygon class="st10" points="255.6,429 257.1,430.4 257,430.4 255.6,429.1 			"/>
			<polygon class="st11" points="255.6,428.9 257.2,430.4 257.1,430.4 255.6,429 			"/>
			<polygon class="st11" points="255.6,428.8 257.2,430.4 257.2,430.4 255.6,428.9 			"/>
			<polygon class="st12" points="255.6,428.7 257.3,430.4 257.2,430.4 255.6,428.8 			"/>
			<polygon class="st13" points="255.6,428.6 257.4,430.4 257.3,430.4 255.6,428.7 			"/>
			<polygon class="st14" points="255.6,428.6 257.5,430.4 257.4,430.4 255.6,428.6 			"/>
			<polygon class="st15" points="255.6,428.5 257.6,430.4 257.5,430.4 255.6,428.6 			"/>
			<polygon class="st16" points="255.6,428.4 257.7,430.4 257.6,430.4 255.6,428.5 			"/>
			<polygon class="st17" points="255.6,428.3 257.8,430.4 257.7,430.4 255.6,428.4 			"/>
			<polygon class="st18" points="255.6,428.2 257.8,430.4 257.8,430.4 255.6,428.3 			"/>
			<polygon class="st18" points="255.6,428.1 257.9,430.4 257.8,430.4 255.6,428.2 			"/>
			<polygon class="st19" points="255.6,428.1 258,430.4 257.9,430.4 255.6,428.1 			"/>
			<polygon class="st20" points="255.6,428 258.1,430.4 258,430.4 255.6,428.1 			"/>
			<polygon class="st21" points="255.6,427.9 258.2,430.4 258.1,430.4 255.6,428 			"/>
			<polygon class="st22" points="255.6,427.8 258.3,430.4 258.2,430.4 255.6,427.9 			"/>
			<polygon class="st23" points="255.6,427.7 258.4,430.4 258.3,430.4 255.6,427.8 			"/>
			<polygon class="st23" points="255.6,427.6 258.4,430.4 258.4,430.4 255.6,427.7 			"/>
			<polygon class="st24" points="255.6,427.6 258.5,430.4 258.4,430.4 255.6,427.6 			"/>
			<polygon class="st25" points="255.6,427.5 258.6,430.4 258.5,430.4 255.6,427.6 			"/>
			<polygon class="st26" points="255.6,427.4 258.7,430.4 258.6,430.4 255.6,427.5 			"/>
			<polygon class="st27" points="255.6,427.3 258.8,430.4 258.7,430.4 255.6,427.4 			"/>
			<polygon class="st28" points="255.6,427.2 258.9,430.4 258.8,430.4 255.6,427.3 			"/>
			<polygon class="st28" points="255.6,427.1 259,430.4 258.9,430.4 255.6,427.2 			"/>
			<polygon class="st29" points="255.6,427.1 259,430.4 259,430.4 255.6,427.1 			"/>
			<polygon class="st30" points="255.6,427 259.1,430.4 259,430.4 255.6,427.1 			"/>
			<polygon class="st31" points="255.6,426.9 259.2,430.4 259.1,430.4 255.6,427 			"/>
			<polygon class="st32" points="255.6,426.8 259.3,430.4 259.2,430.4 255.6,426.9 			"/>
			<polygon class="st33" points="255.6,426.7 259.4,430.4 259.3,430.4 255.6,426.8 			"/>
			<polygon class="st34" points="255.6,426.6 259.5,430.4 259.4,430.4 255.6,426.7 			"/>
			<polygon class="st35" points="255.6,426.6 259.5,430.4 259.5,430.4 255.6,426.6 			"/>
			<polygon class="st36" points="255.6,426.5 259.6,430.4 259.5,430.4 255.6,426.6 			"/>
			<polygon class="st37" points="255.6,426.4 259.7,430.4 259.6,430.4 255.6,426.5 			"/>
			<polygon class="st38" points="255.6,426.3 259.8,430.4 259.7,430.4 255.6,426.4 			"/>
			<polygon class="st39" points="255.6,426.2 259.9,430.4 259.8,430.4 255.6,426.3 			"/>
			<polygon class="st40" points="255.6,426.1 260,430.4 259.9,430.4 255.6,426.2 			"/>
			<polygon class="st41" points="255.6,426.1 260.1,430.4 260,430.4 255.6,426.1 			"/>
			<polygon class="st42" points="255.6,426 260.1,430.4 260.1,430.4 260.1,430.4 255.6,426.1 			"/>
			<polygon class="st43" points="255.7,425.9 260.1,430.3 260.1,430.4 255.6,426 255.6,425.9 			"/>
			<polygon class="st43" points="255.8,425.9 260.1,430.2 260.1,430.3 255.7,425.9 			"/>
			<polygon class="st44" points="255.8,425.9 260.1,430.1 260.1,430.2 255.8,425.9 			"/>
			<polygon class="st45" points="255.9,425.9 260.1,430 260.1,430.1 255.8,425.9 			"/>
			<polygon class="st46" points="256,425.9 260.1,429.9 260.1,430 255.9,425.9 			"/>
			<polygon class="st47" points="256.1,425.9 260.1,429.9 260.1,429.9 256,425.9 			"/>
			<polygon class="st48" points="256.2,425.9 260.1,429.8 260.1,429.9 256.1,425.9 			"/>
			<polygon class="st48" points="256.3,425.9 260.1,429.7 260.1,429.8 256.2,425.9 			"/>
			<polygon class="st49" points="256.3,425.9 260.1,429.6 260.1,429.7 256.3,425.9 			"/>
			<polygon class="st50" points="256.4,425.9 260.1,429.5 260.1,429.6 256.3,425.9 			"/>
			<polygon class="st51" points="256.5,425.9 260.1,429.4 260.1,429.5 256.4,425.9 			"/>
			<polygon class="st52" points="256.6,425.9 260.1,429.4 260.1,429.4 256.5,425.9 			"/>
			<polygon class="st53" points="256.7,425.9 260.1,429.3 260.1,429.4 256.6,425.9 			"/>
			<polygon class="st54" points="256.8,425.9 260.1,429.2 260.1,429.3 256.7,425.9 			"/>
			<polygon class="st55" points="256.9,425.9 260.1,429.1 260.1,429.2 256.8,425.9 			"/>
			<polygon class="st56" points="256.9,425.9 260.1,429 260.1,429.1 256.9,425.9 			"/>
			<polygon class="st57" points="257,425.9 260.1,428.9 260.1,429 256.9,425.9 			"/>
			<polygon class="st58" points="257.1,425.9 260.1,428.9 260.1,428.9 257,425.9 			"/>
			<polygon class="st58" points="257.2,425.9 260.1,428.8 260.1,428.9 257.1,425.9 			"/>
			<polygon class="st59" points="257.3,425.9 260.1,428.7 260.1,428.8 257.2,425.9 			"/>
			<polygon class="st60" points="257.4,425.9 260.1,428.6 260.1,428.7 257.3,425.9 			"/>
			<polygon class="st61" points="257.5,425.9 260.1,428.5 260.1,428.6 257.4,425.9 			"/>
			<polygon class="st62" points="257.5,425.9 260.1,428.4 260.1,428.5 257.5,425.9 			"/>
			<polygon class="st63" points="257.6,425.9 260.1,428.3 260.1,428.4 257.5,425.9 			"/>
			<polygon class="st63" points="257.7,425.9 260.1,428.3 260.1,428.3 257.6,425.9 			"/>
			<polygon class="st64" points="257.8,425.9 260.1,428.2 260.1,428.3 257.7,425.9 			"/>
			<polygon class="st65" points="257.9,425.9 260.1,428.1 260.1,428.2 257.8,425.9 			"/>
			<polygon class="st66" points="258,425.9 260.1,428 260.1,428.1 257.9,425.9 			"/>
			<polygon class="st67" points="258.1,425.9 260.1,427.9 260.1,428 258,425.9 			"/>
			<polygon class="st68" points="258.1,425.9 260.1,427.8 260.1,427.9 258.1,425.9 			"/>
			<polygon class="st69" points="258.2,425.9 260.1,427.8 260.1,427.8 258.1,425.9 			"/>
			<polygon class="st69" points="258.3,425.9 260.1,427.7 260.1,427.8 258.2,425.9 			"/>
			<polygon class="st70" points="258.4,425.9 260.1,427.6 260.1,427.7 258.3,425.9 			"/>
			<polygon class="st71" points="258.5,425.9 260.1,427.5 260.1,427.6 258.4,425.9 			"/>
			<polygon class="st72" points="258.6,425.9 260.1,427.4 260.1,427.5 258.5,425.9 			"/>
			<polygon class="st73" points="258.6,425.9 260.1,427.3 260.1,427.4 258.6,425.9 			"/>
			<polygon class="st74" points="258.7,425.9 260.1,427.3 260.1,427.3 258.6,425.9 			"/>
			<polygon class="st75" points="258.8,425.9 260.1,427.2 260.1,427.3 258.7,425.9 			"/>
			<polygon class="st76" points="258.9,425.9 260.1,427.1 260.1,427.2 258.8,425.9 			"/>
			<polygon class="st77" points="259,425.9 260.1,427 260.1,427.1 258.9,425.9 			"/>
			<polygon class="st78" points="259.1,425.9 260.1,426.9 260.1,427 259,425.9 			"/>
			<polygon class="st79" points="259.2,425.9 260.1,426.8 260.1,426.9 259.1,425.9 			"/>
			<polygon class="st80" points="259.2,425.9 260.1,426.8 260.1,426.8 259.2,425.9 			"/>
			<polygon class="st81" points="259.3,425.9 260.1,426.7 260.1,426.8 259.2,425.9 			"/>
			<polygon class="st82" points="259.4,425.9 260.1,426.6 260.1,426.7 259.3,425.9 			"/>
			<polygon class="st82" points="259.5,425.9 260.1,426.5 260.1,426.6 259.4,425.9 			"/>
			<polygon class="st83" points="259.6,425.9 260.1,426.4 260.1,426.5 259.5,425.9 			"/>
			<polygon class="st83" points="260.1,426.4 259.6,425.9 260.1,425.9 			"/>
		</g>
	</g>
</g>
<g>
	<path class="st84" d="M24.1,67.7V22.4H42c5.5,0,9.7,0.9,12.7,2.8c3,1.9,4.4,4.5,4.4,7.8c0,2.4-0.9,4.6-2.7,6.4
		c-1.8,1.8-4.1,3.1-6.9,3.8v0.1c3.5,0.4,6.3,1.6,8.4,3.6c2.1,2,3.1,4.4,3.1,7.2c0,4.1-1.6,7.4-4.8,9.9s-7.6,3.6-13.2,3.6H24.1z
		 M35.2,29.9v10.7h4.9c2.3,0,4.1-0.5,5.4-1.5c1.3-1,2-2.4,2-4.2c0-3.3-2.7-5-8.1-5H35.2z M35.2,48.2v11.9h6c2.6,0,4.6-0.5,6-1.6
		c1.5-1.1,2.2-2.6,2.2-4.5c0-1.8-0.7-3.2-2.1-4.3c-1.4-1-3.4-1.5-6-1.5H35.2z"/>
</g>
</svg>
